<?xml version="1.0" encoding="UTF-8" standalone="no"?>
<!-- Created with Inkscape (http://www.inkscape.org/) -->

<svg
   xmlns:dc="http://purl.org/dc/elements/1.1/"
   xmlns:cc="http://creativecommons.org/ns#"
   xmlns:rdf="http://www.w3.org/1999/02/22-rdf-syntax-ns#"
   xmlns:svg="http://www.w3.org/2000/svg"
   xmlns="http://www.w3.org/2000/svg"
   xmlns:sodipodi="http://sodipodi.sourceforge.net/DTD/sodipodi-0.dtd"
   xmlns:inkscape="http://www.inkscape.org/namespaces/inkscape"
   version="1.1"
   id="svg62"
   width="1843.2"
   height="1843.2"
   viewBox="0 0 1843.2 1843.2"
   sodipodi:docname="Logo Paamestia ohne mehrung.svg"
   inkscape:version="0.92.5 (2060ec1f9f, 2020-04-08)">
  <metadata
     id="metadata68">
    <rdf:RDF>
      <cc:Work
         rdf:about="">
        <dc:format>image/svg+xml</dc:format>
        <dc:type
           rdf:resource="http://purl.org/dc/dcmitype/StillImage" />
        <dc:title></dc:title>
      </cc:Work>
    </rdf:RDF>
  </metadata>
  <defs
     id="defs66" />
  <sodipodi:namedview
     pagecolor="#ffffff"
     bordercolor="#666666"
     borderopacity="1"
     objecttolerance="10"
     gridtolerance="10"
     guidetolerance="10"
     inkscape:pageopacity="0"
     inkscape:pageshadow="2"
     inkscape:window-width="1920"
     inkscape:window-height="1027"
     id="namedview64"
     showgrid="false"
     inkscape:zoom="0.36214671"
     inkscape:cx="913.64457"
     inkscape:cy="1019.6311"
     inkscape:window-x="1912"
     inkscape:window-y="-8"
     inkscape:window-maximized="1"
     inkscape:current-layer="svg62" />
  <path
     style="fill:#000000;stroke-width:0.95999998"
     d="m 1287.253,1463.2538 c -0.7417,-1.188 -3.1633,-9.072 -5.3812,-17.52 -6.2464,-23.7922 -20.6453,-78.4323 -35.544,-134.88 -25.2148,-95.5333 -28.7104,-108.9303 -32.1239,-123.12 -7.4271,-30.8726 -10.1771,-41.9524 -12.9114,-52.0185 -3.1101,-11.4499 -2.8567,-13.9815 1.3992,-13.9815 1.6874,0 2.7211,0.7737 3.5273,2.64 2.4556,5.6848 22.6264,40.8359 66.5184,115.92 30.7556,52.6124 30.4205,52.0127 30.0652,53.8206 -0.5008,2.5468 -3.3435,3.9844 -5.3652,2.7132 -0.924,-0.581 -5.9523,-8.3548 -11.1739,-17.2751 -16.3157,-27.8726 -51.6762,-88.5108 -60.5496,-103.8337 -4.6676,-8.0602 -8.6743,-14.4672 -8.9037,-14.2377 -0.6999,0.6998 10.9126,47.288 25.1482,100.8927 1.8229,6.864 11.9711,45.312 22.5517,85.44 10.5804,40.128 21.6503,82.1035 24.5995,93.2788 4.339,16.4414 5.1579,20.7008 4.2913,22.32 -1.407,2.6288 -4.4565,2.55 -6.1479,-0.1588 z m 15.8964,-22.032 c -1.7481,-1.7481 -1.4206,-3.4248 1.7514,-8.969 7.3314,-12.814 8.4528,-21.2065 6.7138,-50.2482 -1.8775,-31.3536 -0.8372,-36.751 12.1664,-63.1245 7.371,-14.9498 10.479,-19.1401 13.4884,-18.185 3.9644,1.2583 3.4053,3.7406 -4.0788,18.1136 -13.9513,26.7931 -14.9644,31.9699 -12.9683,66.269 1.3871,23.8345 0.7932,30.6972 -3.6293,41.9361 -5.0223,12.763 -9.819,17.8326 -13.4436,14.208 z m -620.832,-59.5163 c -31.9519,-1.5886 -65.1631,-8.7053 -94.08,-20.1602 -21.4106,-8.4815 -53.3155,-25.968 -76.32,-41.83 -9.5433,-6.5802 -22.0416,-16.2036 -23.2887,-17.9318 -1.3253,-1.8365 -0.2816,-5.5842 1.7642,-6.3343 2.627,-0.9634 14.8716,5.0345 21.3484,10.4571 2.6194,2.1932 4.9936,3.9875 5.2761,3.9875 0.2824,0 7.9149,4.3275 16.9612,9.6167 19.6513,11.4898 28.3567,15.9386 41.5098,21.2133 23.8456,9.5627 44.6124,15.1763 70.349,19.0162 29.9202,4.4643 78.6038,4.0622 110.7802,-0.9148 69.4506,-10.7425 144.7097,-46.4864 199.7798,-94.8843 40.5265,-35.6165 76.8436,-79.7066 98.5534,-119.6471 25.3907,-46.7123 38.8044,-90.7415 45.625,-149.76004 1.8428,-15.9451 1.5425,-61.26336 -0.5088,-76.8 -7.0201,-53.16974 -18.8494,-93.43369 -38.1788,-129.95093 -11.0204,-20.81996 -18.7604,-32.28309 -31.9553,-47.32673 -7.5071,-8.55891 -8.3242,-10.27345 -5.868,-12.31199 2.6162,-2.17127 5.9855,-0.10223 14.4343,8.86396 20.5619,21.82125 44.6667,67.34503 58.0784,109.68569 8.7408,27.59472 16.0658,63.86822 18.185,90.05232 2.7593,34.09348 0.175,76.58682 -6.7824,111.51982 -14.1163,70.878 -48.9413,137.5551 -102.05,195.3879 -34.9112,38.0168 -71.3443,66.9411 -113.3728,90.0071 -66.0941,36.2737 -134.1564,51.8275 -210.24,48.0446 z m 49.44,-8.439 c 12.3771,-0.9075 24.9796,-2.2753 30.312,-3.2899 1.0164,-0.1933 6.168,-1.0809 11.448,-1.9724 66.1562,-11.1692 136.2354,-46.2408 192.96,-96.5681 39.496,-35.0417 79.3422,-86.532 101.7158,-131.4397 5.2477,-10.5331 14.2821,-31.7047 13.7543,-32.2325 -0.2236,-0.2236 -1.4148,2.0721 -2.6471,5.1017 -15.6098,38.3764 -42.8965,80.2652 -75.4798,115.8717 -40.2905,44.0288 -81.3475,75.6175 -129.6355,99.74 -47.1954,23.5766 -87.9146,35.7035 -138.1077,41.1309 -23.2391,2.5128 -75.013,1.0554 -98.4,-2.7698 -6.8526,-1.1208 -1.8971,0.7654 5.8679,2.2335 23.7133,4.4835 60.4478,6.2303 88.2121,4.1946 z m 503.2615,-3.1327 c -0.5355,-0.66 -4.4552,-16.968 -8.7104,-36.24 -6.5679,-29.7468 -27.0081,-123.0834 -32.7964,-149.76 -0.9738,-4.488 -3.324,-15.288 -5.2225,-24 -1.8986,-8.712 -5.4069,-25.128 -7.7962,-36.48 -4.9337,-23.4401 -14.4283,-64.1351 -15.8133,-67.7782 -1.4087,-3.7053 -1.1109,-5.9735 0.9278,-7.0646 2.7642,-1.4794 4.1439,-0.5266 7.9841,5.5135 1.9195,3.0191 7.2171,10.8893 11.7724,17.4893 4.5554,6.6 16.9302,24.528 27.4995,39.84 10.5694,15.312 23.6083,34.2296 28.9753,42.0391 19.4823,28.3486 32.7109,47.4383 39.389,56.8409 12.3986,17.457 32.3719,43.68 33.2698,43.68 0.4857,0 2.0213,-2.484 3.4124,-5.52 10.6297,-23.1989 17.5316,-48.4661 22.093,-80.88 2.047,-14.5465 2.9133,-61.3175 1.4586,-78.7528 -3.5892,-43.019 -13.5167,-81.4977 -31.4466,-121.88724 -21.4415,-48.29952 -51.6685,-91.7561 -91.4974,-131.54288 -17.5242,-17.50576 -30.9416,-29.51877 -45.6406,-40.86373 -62.6365,-48.34381 -122.9752,-78.09698 -163.68,-80.71104 -10.536,-0.67663 -12.48,-1.40822 -12.48,-4.69671 0,-4.02456 3.1353,-4.69714 15.5475,-3.33523 32.3327,3.54764 69.1713,18.45093 113.5435,45.93467 65.6024,40.6336 118.2042,90.67784 157.8737,150.19765 36.3872,54.59487 58.7503,116.11791 65.5078,180.21731 1.8599,17.6427 1.6398,63.2793 -0.3865,80.16 -4.4381,36.9713 -12.5453,66.8835 -25.2991,93.343 -4.3219,8.9666 -5.6331,10.8925 -7.7831,11.4321 -1.9122,0.4799 -2.8483,0.2136 -3.5946,-1.0228 -0.5551,-0.9194 -9.2706,-12.7599 -19.3678,-26.312 -10.0971,-13.5522 -28.9228,-39.9763 -41.8349,-58.7203 -12.912,-18.744 -32.2697,-46.824 -43.0171,-62.4 -10.7473,-15.576 -21.2635,-30.8242 -23.3692,-33.8848 -2.1059,-3.0608 -4.2543,-5.8279 -4.7743,-6.1493 -1.0407,-0.6431 -1.0184,-0.5136 2.7304,15.8911 1.3697,5.9933 4.8015,21.7613 7.6263,35.04 2.8249,13.2787 11.4668,53.087 19.2043,88.463 7.7376,35.376 16.2375,74.256 18.8887,86.4 2.6513,12.144 6.7294,30.6222 9.0624,41.0626 4.648,20.7995 5.0168,24.1946 2.7235,25.0747 -2.3329,0.8953 -3.9116,0.6995 -4.98,-0.6173 z M 624.2493,1301.685 c -38.6227,-3.862 -71.845,-12.7653 -99.5452,-26.6771 -10.0473,-5.0462 -11.739,-7.3671 -7.7681,-10.6578 6.5876,-5.4595 50.6676,-37.6362 67.047,-48.9418 10.2599,-7.0816 20.5984,-14.2306 22.9744,-15.8865 8.7079,-6.0687 46.7956,-32.3712 54.72,-37.7884 4.488,-3.068 13.128,-9.0335 19.2,-13.2564 6.072,-4.2229 13.9759,-9.6439 17.5641,-12.0465 3.5883,-2.4026 6.3538,-4.5387 6.1456,-4.7471 -0.2083,-0.2082 -13.9442,2.6301 -30.5242,6.3073 -16.58,3.6773 -31.6575,6.942 -33.5055,7.2548 -1.848,0.3129 -22.8,4.8388 -46.56,10.0577 -23.76,5.2187 -65.232,14.2997 -92.16,20.1798 -26.928,5.88 -57.5469,12.5938 -68.042,14.9194 -20.4389,4.529 -22.678,4.5208 -22.678,-0.083 0,-1.5573 0.7506,-2.7127 2.16,-3.3246 1.9416,-0.843 45.016,-10.6823 52.08,-11.8965 3.0708,-0.5278 69.6321,-15.0636 136.8,-29.8747 22.44,-4.9482 42.312,-9.2533 44.16,-9.567 11.2241,-1.9051 76.7378,-16.9802 80.9425,-18.6254 4.0381,-1.5799 5.3852,-1.3063 6.5904,1.3386 1.4097,3.0941 0.025,4.6773 -8.5997,9.8297 -3.5493,2.1203 -11.2796,7.257 -17.1785,11.4148 -5.8989,4.1577 -19.8546,13.8235 -31.0125,21.4795 -11.158,7.656 -23.0563,15.864 -26.4408,18.24 -3.3844,2.376 -13.0865,9.072 -21.5602,14.88 -8.4738,5.808 -18.1874,12.504 -21.5859,14.88 -3.3985,2.376 -13.3947,9.288 -22.2137,15.36 -18.3516,12.6352 -56.3811,40.9287 -56.867,42.3083 -0.8657,2.458 32.4046,15.0862 50.7254,19.2535 12.2562,2.7878 33.0977,6.3392 41.76,7.1158 4.224,0.3787 8.76,0.8476 10.08,1.0419 5.7372,0.8445 46.6189,1.0651 57.12,0.3082 82.9778,-5.981 158.3156,-37.5034 228.9395,-95.7913 13.0578,-10.777 46.1732,-43.6345 57.7258,-57.2764 40.615,-47.9599 76.0719,-108.4525 88.1617,-150.41174 3.5665,-12.3781 5.813,-25.1332 5.813,-33.0055 0,-8.174 3.2182,-11.4674 7.2581,-7.4276 1.3873,1.3873 1.5424,2.8412 1.0235,9.5914 -0.8195,10.6622 -3.7568,25.4398 -7.3948,37.2026 -14.5972,47.19804 -55.2644,113.22384 -99.3681,161.33084 -55.1835,60.1923 -117.2476,101.6963 -187.1187,125.1314 -21.3138,7.1487 -37.1637,10.9969 -63.84,15.4996 -21.6776,3.659 -70.03,4.86 -95.0281,2.3602 z m 719.2201,-8.3032 c -1.7097,-1.7097 -1.4742,-2.757 2.208,-9.8213 1.848,-3.5455 3.36,-7.2574 3.36,-8.2488 0,-0.9914 0.5653,-2.148 1.2564,-2.5702 2.1561,-1.3175 8.3436,-10.0803 8.3436,-11.8162 0,-0.909 0.7984,-2.6829 1.7743,-3.942 2.0471,-2.6416 11.7086,-19.3279 16.8895,-29.1695 26.4113,-50.1711 36.8967,-115.2733 29.74,-184.6496 -6.114,-59.26724 -28.1163,-118.67319 -64.5896,-174.39044 -5.4578,-8.33755 -23.3412,-32.72068 -24.9954,-34.08 -0.3212,-0.264 -4.305,-4.8 -8.8528,-10.08 -10.012,-11.62404 -36.4953,-37.94093 -48.366,-48.06213 -65.9304,-56.21352 -132.6861,-85.04054 -218.88,-94.51869 -13.0889,-1.4393 -51.3975,-1.95576 -64.32,-0.86714 -22.1652,1.86725 -48.6177,6.38143 -72,12.28694 -47.6644,12.03828 -95.8256,37.01339 -122.0862,63.31062 -4.2073,4.21318 -8.9538,3.74188 -8.9538,-0.88907 0,-3.08761 10.1515,-13.39085 21.7928,-22.11864 13.7787,-10.33025 45.6948,-27.82976 66.7334,-36.58975 35.1841,-14.6499 82.9644,-26.28795 120.2738,-29.29563 16.4652,-1.32733 62.3185,-0.64299 77.28,1.15337 83.2808,9.99915 149.0906,39.0024 216.8697,95.57745 77.4397,64.63864 130.3659,153.10992 146.4596,244.82111 8.0719,45.9981 7.928,96.1766 -0.3912,136.5282 -2.3633,11.4622 -7.6454,30.2818 -11.4,40.6171 -11.1784,30.7692 -35.1331,72.8654 -58.0239,101.9663 -4.7805,6.0775 -7.561,7.4092 -10.1222,4.848 z m 65.7438,-127.668 c -0.3065,-0.7658 -0.534,-0.5384 -0.5801,0.58 -0.041,1.012 0.1853,1.579 0.5043,1.26 0.319,-0.319 0.3531,-1.147 0.076,-1.84 z m 4.1274,-14.4522 c 5.1137,-21.5106 6.7946,-35.9789 7.4084,-63.7686 1.0671,-48.3083 -4.6797,-87.63634 -19.0233,-130.18684 -10.9181,-32.38891 -31.1728,-72.14116 -51.7126,-101.4924 -45.9973,-65.72986 -116.7438,-123.44 -186.2557,-151.93441 -11.9834,-4.91224 -20.8952,-8.02259 -15.84,-5.52839 1.056,0.52103 8.832,3.99902 17.28,7.72888 52.5166,23.1865 99.8086,58.54701 146.0916,109.23367 53.8142,58.93419 91.9279,139.13405 102.5084,215.70029 5.408,39.1362 4.2453,90.6488 -2.8023,124.1428 -1.5561,7.3953 -1.7298,8.8172 -1.0772,8.8172 0.2203,0 1.7606,-5.7205 3.4227,-12.7122 z M 1143.5974,696.45376 c -0.792,-0.51183 -1.872,-0.9306 -2.4,-0.9306 -0.528,0 -0.312,0.41877 0.48,0.9306 0.792,0.51183 1.872,0.9306 2.4,0.9306 0.528,0 0.312,-0.41877 -0.48,-0.9306 z m -680.16,586.99094 c -17.2015,-9.1011 -27.4029,-12.8262 -37.1933,-13.5813 -4.1661,-0.3212 -17.1579,-0.026 -28.8707,0.6553 -23.837,1.3872 -30.701,0.793 -41.936,-3.631 -13.5989,-5.3547 -18.5775,-10.6517 -13.1687,-14.011 1.3739,-0.8533 2.8543,-0.4329 7.5071,2.1319 13.8385,7.6281 21.3841,8.656 50.6708,6.9024 31.0973,-1.8621 36.664,-0.8149 62.2687,11.7147 12.899,6.3122 19.4421,10.5814 19.4421,12.6855 0,1.6862 -2.6168,4.407 -4.1486,4.3136 -0.6223,-0.038 -7.1794,-3.269 -14.5714,-7.1801 z m 21.9738,-30.7521 c -0.7969,-3.1752 -0.5325,-3.3994 14.0262,-11.8877 19.749,-11.5145 29.6964,-17.3273 40.32,-23.5609 11.4881,-6.7409 30.0304,-17.5634 42.72,-24.9342 4.752,-2.7602 13.824,-8.0524 20.16,-11.7606 6.336,-3.7082 12.8966,-7.4397 14.5791,-8.292 3.5518,-1.7994 4.9622,-3.5316 2.4865,-3.0539 -7.5882,1.4641 -42.2751,10.1809 -77.0656,19.3666 -5.016,1.3243 -13.872,3.6421 -19.68,5.1506 -5.808,1.5085 -36.912,9.7129 -69.12,18.2322 -115.2184,30.4759 -130.9741,34.5811 -132.7232,34.5811 -3.5708,0 -5.4605,-4.3765 -2.8317,-6.5582 1.0057,-0.8347 47.1545,-13.338 98.1149,-26.5826 4.752,-1.2351 32.616,-8.5676 61.92,-16.2943 29.304,-7.7269 57.384,-15.1057 62.4,-16.3975 5.016,-1.2918 13.008,-3.4199 17.76,-4.7291 4.752,-1.3093 20.304,-5.2331 34.56,-8.7195 14.256,-3.4865 34.2694,-8.4842 44.4741,-11.106 10.2048,-2.6218 19.4928,-4.6332 20.64,-4.4698 1.6048,0.2285 2.0859,0.9528 2.0859,3.1402 0,2.185 -0.6626,3.185 -2.8625,4.32 -4.6517,2.3999 -43.4444,24.2643 -52.8175,29.7691 -10.2952,6.0462 -11.6053,6.8085 -24,13.9623 -5.28,3.0474 -14.352,8.3514 -20.16,11.7865 -5.808,3.4352 -12.072,7.0923 -13.92,8.127 -1.848,1.0347 -8.328,4.8061 -14.4,8.3811 -6.072,3.5748 -17.736,10.4383 -25.92,15.252 -16.0643,9.4489 -19.6759,10.5418 -20.7462,6.2776 z m 324.8262,-162.6472 c -1.8904,-1.1781 -2.2631,-5.2779 -0.5747,-6.3215 0.6079,-0.3756 10.2199,-0.7618 21.36,-0.858 22.0534,-0.1905 35.7504,-1.5942 61.6398,-6.3168 16.7108,-3.0484 26.3148,-5.3529 36.3516,-8.7226 11.3223,-3.8013 34.774,-13.6012 46.9993,-19.6398 6.8288,-3.3731 13.1856,-6.1329 14.1263,-6.1329 2.3101,0 4.0321,3.3415 2.8551,5.5406 -1.9741,3.6886 -43.0017,22.0315 -64.6919,28.9228 -13.8466,4.3994 -41.8095,10.0721 -59.7119,12.1134 -3.1494,0.3591 -6.6054,0.8655 -7.68,1.1254 -4.4157,1.0678 -49.0157,1.3225 -50.6736,0.2894 z m -19.44,-21.7634 c -12.6583,-0.7031 -41.9563,-4.3552 -53.28,-6.6415 -69.1492,-13.9615 -126.0315,-41.7469 -183.36,-89.56584 -41.1432,-34.31856 -74.0042,-72.64272 -98.8645,-115.3009 -31.7855,-54.54133 -48.8186,-107.28448 -53.8238,-166.66589 -1.7181,-20.38324 -0.715,-66.4486 1.7954,-82.45411 5.2394,-33.40434 13.3923,-59.51257 27.58,-88.32 12.085,-24.53795 26.6536,-48.16926 42.4946,-68.92956 6.941,-9.09647 7.2945,-9.39991 10.6216,-9.12 2.7634,0.23249 3.6229,0.80782 4.3608,2.91894 1.1969,3.4242 -2.8921,12.35935 -9.1052,19.89614 -13.7752,16.71024 -31.2033,48.25949 -40.656,73.59752 -12.8819,34.53025 -17.6524,61.86974 -18.4886,105.95696 -0.5768,30.40959 0.5126,47.55413 4.5652,71.84726 8.9438,53.61195 33.577,112.26716 67.5583,160.8654 25.5866,36.59268 66.139,77.78794 103.7222,105.36634 64.5682,47.37984 140.579,72.74964 222.24,74.17614 33.5283,0.5856 65.7676,-3.221 101.5518,-11.9906 48.6181,-11.9148 95.7149,-35.7135 124.999,-63.16384 5.3414,-5.0069 8.9092,-6.2296 9.9865,-3.4222 1.0306,2.6857 0.6432,3.8593 -2.5373,7.6868 -7.321,8.8102 -19.9848,18.96384 -35.0052,28.06634 -12.9994,7.8779 -47.2924,24.4175 -61.7148,29.7654 -35.1121,13.0195 -74.1822,21.8048 -111.36,25.04 -8.951,0.7789 -41.9387,1.0211 -53.28,0.3912 z m -171.36,-60.2274 c 0,-0.2195 -4.9824,-3.6754 -11.072,-7.6799 -24.5933,-16.17204 -47.5132,-35.11174 -71.5219,-59.10126 -37.8403,-37.81017 -62.5903,-72.08796 -84.9265,-117.61968 -21.4315,-43.68749 -33.0323,-82.70725 -38.5311,-129.6 -3.3763,-28.79362 -1.8311,-81.74842 3.1049,-106.40039 2.1997,-10.98588 1.0719,-9.96734 -1.445,1.30493 -3.4725,15.55316 -5.8286,36.50537 -6.4742,57.57546 -2.937,95.85516 29.4207,185.95734 94.8305,264.06182 28.136,33.59655 72.205,71.52178 108.8255,93.65392 7.3982,4.4712 7.2098,4.3717 7.2098,3.8051 z m 195.84,20.8525 c -45.9291,-4.9129 -119.5254,-44.33744 -181.44,-97.19478 -48.114,-41.07557 -89.5313,-94.10042 -115.2589,-147.56124 -19.6857,-40.90583 -30.7056,-77.30977 -36.573,-120.81732 -1.9265,-14.2858 -2.2006,-20.32858 -2.1984,-48.48 0,-25.31068 0.3698,-35.0224 1.7275,-45.6 4.6426,-36.1719 13.5712,-68.00503 25.7818,-91.92 4.3696,-8.55804 5.0153,-9.36 7.5362,-9.36 1.7139,0 3.1219,0.68145 3.721,1.80085 0.5301,0.99047 7.5993,10.60247 15.7094,21.36 14.9077,19.77422 25.9363,35.07364 37.2821,51.71915 27.2789,40.02139 78.8802,114.27204 79.1955,113.95675 0.215,-0.21498 -0.9251,-6.08576 -2.5335,-13.04619 -1.6084,-6.96043 -5.2738,-23.76475 -8.1454,-37.34294 -2.8715,-13.57819 -7.4136,-34.62362 -10.0935,-46.76762 -2.6799,-12.144 -5.6953,-25.968 -6.701,-30.72 -1.6832,-7.95298 -7.9225,-36.52513 -25.8898,-118.56 -3.7584,-17.16 -7.4846,-33.71398 -8.2803,-36.78662 -1.6363,-6.31828 -1.1936,-8.91202 1.6764,-9.82294 4.3594,-1.38361 4.5674,-0.7606 13.687,40.98994 3.3854,15.49879 13.9475,63.81962 23.4715,107.37962 9.524,43.56 19.3133,88.704 21.7541,100.32 2.4408,11.616 7.0333,31.704 10.2057,44.64 3.1724,12.936 5.8394,24.54526 5.9268,25.79836 0.2041,2.92856 -2.5427,4.83856 -4.8812,3.3941 -0.924,-0.57075 -2.544,-2.40553 -3.6,-4.07729 -2.8517,-4.51442 -77.7592,-113.52475 -94.1101,-136.95517 -2.2108,-3.168 -6.6823,-9.648 -9.9366,-14.4 -10.5508,-15.40666 -37.0475,-50.31015 -37.9914,-50.04541 -1.3364,0.37479 -8.3635,16.69233 -12.4568,28.92541 -18.6722,55.80371 -20.6932,130.2502 -5.2484,193.32577 14.2331,58.12707 43.6379,115.19639 84.949,164.87062 35.4907,42.67551 75.8269,77.14661 127.769,109.19071 44.2259,27.28384 80.7144,41.63744 112.6253,44.30384 8.6252,0.7207 10.56,1.5256 10.56,4.3929 0,3.4103 -5.8995,4.4096 -18.24,3.0895 z m -17.1504,-23.1224 c -14.0791,-11.37904 -24.2983,-25.57304 -39.8427,-55.34014 -22.6728,-43.41749 -38.2398,-96.97453 -43.2711,-148.8708 -2.5972,-26.78916 -0.9895,-68.79791 3.8209,-99.84 7.0829,-45.70615 25.0954,-95.34318 49.1277,-135.38055 29.8817,-49.78251 72.5196,-97.40161 117.8756,-131.64641 23.8817,-18.03128 60.3925,-39.32212 85.92,-50.10328 2.904,-1.22646 6.144,-2.61397 7.2,-3.08337 15.8674,-7.05305 47.4718,-16.6489 69.12,-20.98644 9.1744,-1.83824 32.9009,-5.1448 45.12,-6.288 10.7588,-1.00658 42.1812,-1.20814 57.12,-0.3664 24.4221,1.37607 53.5914,7.02604 76.8,14.87584 33.2644,11.25095 67.4556,29.8712 102.4734,55.80615 11.7191,8.67948 13.3903,10.61853 11.7666,13.65246 -1.5072,2.81627 -4.5192,2.38221 -13.323,-1.92 -4.3219,-2.112 -8.0798,-3.84 -8.3508,-3.84 -0.2711,0 -3.6054,-2.08344 -7.4096,-4.62987 -51.6064,-34.54438 -97.9322,-50.23172 -159.0766,-53.86833 -78.1955,-4.65074 -151.9091,14.00548 -222.72,56.36834 -29.1755,17.45433 -51.8212,35.14132 -79.5484,62.12986 -63.8668,62.16529 -102.8421,132.95204 -117.6085,213.6 -9.4074,51.37921 -8.9813,98.37893 1.3579,149.76964 8.2197,40.85605 20.0067,71.65676 40.6683,106.27046 8.8928,14.8978 15.1441,23.3834 24.3303,33.0266 6.8228,7.16224 8.1158,9.87384 5.8084,12.18134 -1.7662,1.7662 -3.82,1.3428 -7.3584,-1.5171 z M 761.9533,596.70154 c 24.5376,-48.85735 72.4188,-105.69436 121.0041,-143.63718 11.3357,-8.85264 39.9964,-28.15155 51.5154,-34.68823 39.3804,-22.3473 82.4682,-38.5851 123.2931,-46.4635 24.671,-4.761 41.3929,-6.17887 72.8715,-6.17887 31.5574,0 47.6655,1.37937 72.5674,6.21411 5.496,1.06705 10.3886,1.94139 10.8726,1.94298 5.5997,0.0185 -24.6348,-7.30941 -37.84,-9.17121 -22.1072,-3.11687 -62.5228,-4.21856 -83.04,-2.26359 -9.7597,0.92995 -23.994,2.60982 -26.88,3.17228 -1.056,0.20581 -6.24,1.10521 -11.52,1.99869 -24.2338,4.10083 -57.8081,14.55888 -82.5015,25.69827 -75.4149,34.02044 -135.9038,85.75819 -185.2528,158.45176 -11.3049,16.65266 -31.8307,53.47671 -29.808,53.47671 0.2326,0 2.3559,-3.8485 4.7182,-8.55222 z m 456.5241,-221.84778 c -0.792,-0.51183 -1.872,-0.9306 -2.4,-0.9306 -0.528,0 -0.312,0.41877 0.48,0.9306 0.792,0.51183 1.872,0.9306 2.4,0.9306 0.528,0 0.312,-0.41877 -0.48,-0.9306 z m -85.248,598.848 c -0.816,-0.816 -1.152,-6.5268 -1.152,-19.5782 0,-25.72948 -2.9979,-51.48824 -9.2628,-79.5898 -4.1957,-18.81995 -14.7019,-46.63198 -26.5332,-70.23915 -4.9856,-9.94768 -5.6662,-11.90462 -4.5911,-13.2 1.5084,-1.81752 5.2097,-1.99879 6.5518,-0.32085 5.2925,6.61686 24.26,51.14028 29.3437,68.88 8.9581,31.25997 15.4791,89.1784 12.2516,108.8185 -0.9507,5.7856 -3.7984,8.0391 -6.608,5.2295 z M 733.8597,942.91341 c -4.8687,-5.86637 -23.756,-50.27049 -28.9296,-68.01347 -3.7731,-12.94002 -8.1371,-34.95358 -10.6349,-53.64618 -2.1673,-16.21903 -3.4664,-49.7469 -2.1908,-56.54153 0.9076,-4.8346 3.203,-6.91523 5.813,-5.26895 1.5001,0.94622 1.6949,3.10437 1.8192,20.15508 0.197,27.03895 4.1603,57.87258 10.9367,85.08745 4.2644,17.12627 14.2748,42.84392 25.0205,64.28033 4.6704,9.3168 5.5202,11.7218 4.69,13.27306 -1.1439,2.13734 -4.9808,2.53382 -6.5241,0.67421 z m 20.2109,-158.29039 c -3.1431,-3.14314 -0.2079,-25.21425 6.2313,-46.85664 8.9808,-30.18442 31.391,-72.26282 59.1308,-111.02684 22.1183,-30.90849 35.8573,-47.03601 61.2568,-71.90636 29.8869,-29.26419 56.521,-49.50101 94.4279,-71.74703 4.491,-2.6356 31.835,-16.2243 39.84,-19.79862 24.5598,-10.96624 65.7463,-23.2888 88.4086,-26.45087 2.4248,-0.33833 5.4488,-0.79022 6.72,-1.00422 6.6724,-1.12316 17.8779,-2.38907 27.2714,-3.08092 15.6679,-1.15396 54.9878,-0.84853 68.16,0.52946 38.6826,4.04674 72.6125,13.09936 99.2617,26.4834 9.1266,4.58365 11.423,6.87966 9.4211,9.41917 -1.8316,2.32339 -39.6504,30.52134 -59.4612,44.33459 -9.8881,6.89459 -29.8876,20.74362 -44.4433,30.77562 -14.5558,10.032 -35.4095,24.43632 -46.3417,32.00961 -10.9321,7.57327 -24.0903,16.60755 -29.2404,20.07617 -5.1502,3.46861 -9.1739,6.49652 -8.9418,6.72868 0.2323,0.23215 6.1739,-0.89494 13.2039,-2.50467 7.03,-1.60972 13.8617,-3.13718 15.1817,-3.39433 1.32,-0.25717 4.776,-0.933 7.68,-1.50185 7.7904,-1.52602 52.8472,-11.32162 104.64,-22.74927 40.9263,-9.03006 49.1793,-10.81551 57.6,-12.46129 1.32,-0.25799 21.6906,-4.76522 45.268,-10.01606 23.5774,-5.25085 43.9365,-9.54699 45.2424,-9.54699 6.0964,0 5.646,6.11285 -0.5683,7.71259 -2.2121,0.56947 -5.3181,1.42903 -6.9021,1.91011 -1.584,0.48109 -4.392,1.12891 -6.24,1.43959 -1.848,0.31069 -23.664,5.03728 -48.48,10.50355 -69.7751,15.36952 -139.3293,30.55042 -169.44,36.98199 -15.048,3.21421 -28.656,6.1224 -30.24,6.46264 -1.584,0.34023 -3.3377,0.70576 -3.8971,0.81229 -1.4399,0.27417 -25.0363,5.97077 -48.1884,11.63352 -4.6022,1.12565 -6.8035,-4.1354 -2.8745,-6.87003 1.188,-0.82687 7.992,-5.40734 15.12,-10.17884 7.128,-4.77148 17.496,-11.81006 23.04,-15.64127 5.544,-3.8312 15.0596,-10.3949 21.1458,-14.58599 17.3153,-11.92358 23.4618,-16.1652 46.8012,-32.29635 11.9972,-8.29192 24.405,-16.86666 27.573,-19.055 23.0844,-15.94574 33.1459,-23.13988 50.64,-36.20816 10.956,-8.18424 19.92,-15.18587 19.92,-15.55916 0,-1.02477 -13.6695,-7.22579 -24.2943,-11.0208 -31.6373,-11.30038 -67.5946,-16.87999 -109.0235,-16.91757 -25.3268,-0.0229 -47.233,1.65256 -63.9622,4.89223 -2.64,0.51125 -6.528,1.1855 -8.64,1.49832 -18.798,2.78437 -53.8185,13.77255 -78.1914,24.53371 -52.5589,23.20579 -97.1917,54.44258 -139.2486,97.45468 -26.5124,27.11455 -46.879,52.84233 -67.9605,85.84989 -30.2572,47.3744 -45.6401,84.67457 -49.4592,119.92806 -1.1548,10.66052 -1.2777,11.04967 -3.5749,11.32126 -1.3084,0.15469 -2.9159,-0.25571 -3.5722,-0.912 z m 84.9807,-95.48203 c -1.0171,-2.23228 -0.8808,-2.73119 1.2206,-4.4694 5.6412,-4.66615 45.1082,-21.93922 63.9276,-27.97848 14.8624,-4.76942 40.6814,-9.75073 65.6379,-12.66365 16.9696,-1.9807 48.386,-2.3082 51.6,-0.5379 2.3369,1.28721 2.9645,5.31171 1.016,6.51593 -0.6292,0.38888 -9.3772,0.66437 -19.44,0.61221 -25.7722,-0.13358 -56.2396,3.66192 -83.4378,10.39433 -18.6604,4.61902 -42.7515,13.82546 -64.2045,24.5358 -6.7245,3.35716 -12.8897,6.10393 -13.7006,6.10393 -0.8108,0 -1.9895,-1.13075 -2.6192,-2.51277 z M 621.9902,607.34764 c -4.2261,-8.42068 -7.7522,-14.62697 -33.0977,-58.25388 -31.7603,-54.66864 -32.5583,-56.03798 -47.5447,-81.59077 -7.7387,-13.19494 -14.0704,-24.94547 -14.0704,-26.1123 0,-2.39374 2.3449,-4.0971 4.768,-3.46344 1.3589,0.35535 13.3333,19.99331 35.5893,58.36651 2.4499,4.224 8.9898,15.456 14.5332,24.96 5.5434,9.504 14.5266,24.95824 19.9627,34.34276 9.2602,15.98625 12.4864,20.70631 11.2216,16.41746 -0.292,-0.99012 -2.3097,-9.36022 -4.4836,-18.60022 -2.174,-9.24 -6.7023,-27.168 -10.063,-39.84 -6.9595,-26.24203 -5.6127,-21.13998 -27.2416,-103.2 -8.9763,-34.056 -20.6925,-78.49323 -26.036,-98.7494 -5.3435,-20.25616 -9.5839,-37.75216 -9.4231,-38.88 0.2344,-1.64339 0.9531,-2.0506 3.6193,-2.0506 h 3.3267 l 2.0966,7.68 c 1.1532,4.224 4.0265,15.024 6.3852,24 12.0069,45.69135 24.8701,94.49464 32.3878,122.88 17.5828,66.38883 31.7435,121.16926 39.4206,152.49734 8.3106,33.91331 8.4634,35.29172 3.9863,35.96051 -1.6128,0.24092 -2.6329,-0.97547 -5.3372,-6.36397 z m 548.156,-24.96947 c -0.8739,-0.96558 -1.5888,-2.19462 -1.5888,-2.73121 0,-1.24551 3.1853,-4.1532 4.5497,-4.1532 1.0119,0 22.1384,-11.8213 46.3303,-25.92407 6.6,-3.8475 18.48,-10.74894 26.4,-15.33654 7.92,-4.58761 21.96,-12.79039 31.2,-18.22841 9.24,-5.43803 21.768,-12.78245 27.84,-16.32094 6.072,-3.5385 15.36,-8.95412 20.64,-12.03472 15.9844,-9.32604 16.9004,-9.63517 18.6828,-6.30486 2.0152,3.7655 2.9218,3.10253 -33.5628,24.54483 -5.544,3.25826 -11.808,6.91371 -13.92,8.12323 -2.112,1.20951 -13.992,8.14256 -26.4,15.40675 -12.408,7.2642 -24.072,14.06913 -25.92,15.12207 -1.848,1.05295 -8.76,5.0571 -15.36,8.89813 -6.6,3.84102 -13.8585,8.04812 -16.13,9.34911 -2.2715,1.30099 -3.9558,2.53962 -3.7429,2.7525 0.7698,0.7698 37.9093,-8.45784 99.0729,-24.61549 34.32,-9.06635 66.288,-17.48205 71.04,-18.70155 4.752,-1.2195 35.856,-9.38792 69.12,-18.15205 33.264,-8.76413 60.9918,-15.74391 61.6172,-15.51062 0.6255,0.2333 1.5808,1.2529 2.1228,2.26579 1.7013,3.17878 -0.8406,5.0565 -10.0533,7.42675 -4.7117,1.21221 -35.7827,9.39709 -69.0467,18.18864 -33.264,8.79153 -65.448,17.28505 -71.52,18.87448 -6.072,1.58942 -14.712,3.86134 -19.2,5.0487 -38.7207,10.24411 -110.8704,28.89198 -122.88,31.75967 -8.184,1.9542 -15.528,3.72092 -16.32,3.92603 -0.792,0.20512 -4.248,1.06101 -7.68,1.90197 -3.432,0.84096 -9.8523,2.57563 -14.2674,3.85481 -9.6031,2.78231 -9.0478,2.75359 -11.0238,0.5702 z M 1481.9974,477.5938 c -6.5089,-3.88779 -15.1164,-6.65507 -22.9865,-7.38999 -3.5963,-0.33582 -15.8795,-0.0513 -27.2961,0.63238 -31.4163,1.88123 -36.834,0.83167 -63.2291,-12.24919 -15.0704,-7.46855 -19.038,-10.40909 -18.087,-13.40525 1.2583,-3.96435 3.7406,-3.40536 18.1136,4.07878 26.7931,13.95136 31.9699,14.96442 66.269,12.96831 23.8085,-1.38558 30.6576,-0.79549 41.9361,3.61295 11.2223,4.38652 16.8567,9.13437 14.7771,12.45197 -1.6369,2.61121 -4.2797,2.41644 -9.4971,-0.69996 z M 493.266,430.94519 c -0.8298,-0.82971 -1.5086,-1.88152 -1.5086,-2.33732 0,-0.45582 3.2556,-7.08095 7.2346,-14.72251 9.3124,-17.88412 12.8422,-27.57367 13.5934,-37.31502 0.3225,-4.1825 0.029,-17.18776 -0.6529,-28.90056 -1.3873,-23.83704 -0.793,-30.70103 3.6309,-41.93602 5.3547,-13.5989 10.6517,-18.57745 14.0111,-13.16866 0.8533,1.37386 0.4328,2.8543 -2.1319,7.50704 -7.6282,13.8385 -8.6561,21.38415 -6.9024,50.67083 1.8779,31.35998 0.8007,36.94828 -12.138,62.97298 -8.9127,17.92669 -11.497,20.86843 -15.1362,17.22924 z"
     id="path74"
     inkscape:connector-curvature="0" />
</svg>
